<svg width="14" height="14" viewBox="0 0 14 14" fill="none" xmlns="http://www.w3.org/2000/svg">
<path d="M1.75 6.41667H6.41667V1.75H1.75V6.41667ZM2.91667 2.91667H5.25V5.25H2.91667V2.91667ZM1.75 12.25H6.41667V7.58333H1.75V12.25ZM2.91667 8.75H5.25V11.0833H2.91667V8.75ZM7.58333 1.75V6.41667H12.25V1.75H7.58333ZM11.0833 5.25H8.75V2.91667H11.0833V5.25ZM11.0833 11.0833H12.25V12.25H11.0833V11.0833ZM7.58333 7.58333H8.75V8.75H7.58333V7.58333ZM8.75 8.75H9.91667V9.91667H8.75V8.75ZM7.58333 9.91667H8.75V11.0833H7.58333V9.91667ZM8.75 11.0833H9.91667V12.25H8.75V11.0833ZM9.91667 9.91667H11.0833V11.0833H9.91667V9.91667ZM9.91667 7.58333H11.0833V8.75H9.91667V7.58333ZM11.0833 8.75H12.25V9.91667H11.0833V8.75Z" fill="white"/>
</svg>
