<svg width="18" height="18" viewBox="0 0 18 18" fill="none" xmlns="http://www.w3.org/2000/svg">
<path d="M11.9213 11.5207C12.3467 11.2922 12.8336 11.1621 13.3522 11.1621H13.354C13.4067 11.1621 13.4313 11.0988 13.3926 11.0637C12.8533 10.5797 12.2373 10.1888 11.5698 9.90703C11.5627 9.90352 11.5557 9.90176 11.5487 9.89824C12.6403 9.10547 13.3504 7.81699 13.3504 6.36328C13.3504 3.95508 11.4028 2.00391 8.99985 2.00391C6.59692 2.00391 4.65102 3.95508 4.65102 6.36328C4.65102 7.81699 5.36118 9.10547 6.45454 9.89824C6.4475 9.90176 6.44047 9.90352 6.43344 9.90703C5.6477 10.2393 4.94282 10.7156 4.33637 11.3238C3.73343 11.9257 3.25341 12.6391 2.92309 13.4244C2.59809 14.1934 2.4227 15.0173 2.40629 15.852C2.40582 15.8707 2.40912 15.8894 2.41597 15.9068C2.42283 15.9243 2.43311 15.9402 2.44622 15.9537C2.45932 15.9671 2.47498 15.9778 2.49228 15.9851C2.50957 15.9923 2.52815 15.9961 2.54692 15.9961H3.59985C3.67543 15.9961 3.73872 15.9346 3.74047 15.859C3.77563 14.502 4.31879 13.2311 5.28032 12.2678C6.27348 11.2711 7.59536 10.7227 9.00161 10.7227C9.99829 10.7227 10.9545 10.9986 11.779 11.5154C11.8001 11.5287 11.8244 11.5362 11.8494 11.5372C11.8744 11.5381 11.8992 11.5324 11.9213 11.5207ZM9.00161 9.38672C8.19653 9.38672 7.43891 9.07207 6.86762 8.50078C6.58654 8.22043 6.36371 7.88723 6.21196 7.52038C6.06021 7.15353 5.98255 6.76028 5.98344 6.36328C5.98344 5.55645 6.29809 4.79707 6.86762 4.22578C7.43715 3.65449 8.19477 3.33984 9.00161 3.33984C9.80844 3.33984 10.5643 3.65449 11.1356 4.22578C11.4167 4.50614 11.6395 4.83934 11.7913 5.20619C11.943 5.57304 12.0207 5.96629 12.0198 6.36328C12.0198 7.17012 11.7051 7.92949 11.1356 8.50078C10.5643 9.07207 9.80668 9.38672 9.00161 9.38672ZM15.4668 13.5703H11.2481C11.1707 13.5703 11.1075 13.6336 11.1075 13.7109V14.6953C11.1075 14.7727 11.1707 14.8359 11.2481 14.8359H15.4668C15.5442 14.8359 15.6075 14.7727 15.6075 14.6953V13.7109C15.6075 13.6336 15.5442 13.5703 15.4668 13.5703Z" fill="black"/>
</svg>
