<svg width="12" height="13" viewBox="0 0 12 13" fill="none" xmlns="http://www.w3.org/2000/svg">
<path d="M6 0.262695C4.81331 0.262695 3.65328 0.614589 2.66658 1.27388C1.67989 1.93317 0.910851 2.87024 0.456726 3.96659C0.00259972 5.06295 -0.11622 6.26935 0.115291 7.43324C0.346802 8.59712 0.918247 9.66622 1.75736 10.5053C2.59648 11.3445 3.66558 11.9159 4.82946 12.1474C5.99335 12.3789 7.19975 12.2601 8.2961 11.806C9.39246 11.3518 10.3295 10.5828 10.9888 9.59612C11.6481 8.60942 12 7.44938 12 6.2627C11.9982 4.67197 11.3654 3.14692 10.2406 2.0221C9.11578 0.897284 7.59073 0.264548 6 0.262695V0.262695ZM9.4635 4.3627L6.041 9.0072C6.0006 9.06081 5.94992 9.10583 5.89192 9.13964C5.83392 9.17345 5.76977 9.19537 5.70321 9.20412C5.63665 9.21287 5.56902 9.20828 5.50425 9.19061C5.43949 9.17294 5.37889 9.14254 5.326 9.1012L2.882 7.1472C2.83072 7.10616 2.78803 7.05542 2.75635 6.99788C2.72468 6.94034 2.70465 6.87713 2.69741 6.81185C2.68278 6.68001 2.72112 6.54776 2.804 6.4442C2.88688 6.34063 3.00751 6.27423 3.13935 6.2596C3.27119 6.24497 3.40344 6.28332 3.507 6.3662L5.545 7.9967L8.6585 3.7712C8.69599 3.71495 8.74448 3.66689 8.80106 3.62991C8.85765 3.59294 8.92114 3.56782 8.9877 3.55607C9.05426 3.54433 9.12252 3.5462 9.18834 3.56158C9.25415 3.57696 9.31617 3.60552 9.37064 3.64555C9.42511 3.68557 9.4709 3.73622 9.50524 3.79444C9.53958 3.85265 9.56176 3.91723 9.57044 3.98426C9.57912 4.05129 9.57412 4.11939 9.55574 4.18443C9.53736 4.24948 9.50598 4.31012 9.4635 4.3627Z" fill="#6993FF"/>
</svg>
