<svg width="18" height="18" viewBox="0 0 18 18" fill="none" xmlns="http://www.w3.org/2000/svg">
<path d="M15 5.25C14.5858 5.25 14.25 5.58579 14.25 6V8C14.25 8.13807 14.1381 8.25 14 8.25H4.3725L6.52986 6.08662C6.82138 5.79427 6.82105 5.32105 6.52912 5.02912C6.23689 4.73689 5.76311 4.73689 5.47088 5.02912L2.20711 8.29289C1.81658 8.68342 1.81658 9.31658 2.20711 9.70711L5.47088 12.9709C5.76311 13.2631 6.23689 13.2631 6.52912 12.9709C6.82105 12.6789 6.82138 12.2057 6.52986 11.9134L4.3725 9.75H14.75C15.3023 9.75 15.75 9.30228 15.75 8.75V6C15.75 5.58579 15.4142 5.25 15 5.25Z" fill="#090909" stroke="#090909" stroke-width="0.2"/>
</svg>
