<svg width="14" height="15" viewBox="0 0 14 15" fill="none" xmlns="http://www.w3.org/2000/svg">
<g clip-path="url(#clip0_1868_13766)">
<path d="M13.64 12.8743L9.83138 9.06567C10.6627 7.97288 11.0479 6.60511 10.909 5.23909C10.7702 3.87307 10.1176 2.61078 9.08344 1.70762C8.04924 0.804448 6.71058 0.327828 5.3383 0.374184C3.96602 0.420539 2.66258 0.986409 1.69168 1.95731C0.720784 2.92821 0.154914 4.23165 0.108559 5.60393C0.0622034 6.9762 0.538823 8.31486 1.44199 9.34907C2.34516 10.3833 3.60744 11.0358 4.97346 11.1747C6.33948 11.3135 7.70725 10.9283 8.80005 10.097L12.6086 13.9056C12.7466 14.0401 12.9316 14.1154 13.1243 14.1154C13.317 14.1154 13.502 14.0401 13.64 13.9056C13.7766 13.7688 13.8534 13.5833 13.8534 13.3899C13.8534 13.1966 13.7766 13.0111 13.64 12.8743ZM1.60346 5.80484C1.60346 5.02608 1.8344 4.2648 2.26705 3.61728C2.69971 2.96976 3.31466 2.46508 4.03415 2.16706C4.75363 1.86904 5.54533 1.79107 6.30913 1.943C7.07293 2.09493 7.77453 2.46994 8.3252 3.02061C8.87587 3.57128 9.25088 4.27287 9.40281 5.03667C9.55474 5.80047 9.47676 6.59217 9.17874 7.31166C8.88072 8.03114 8.37604 8.64609 7.72852 9.07875C7.081 9.51141 6.31973 9.74234 5.54097 9.74234C4.49705 9.74111 3.49625 9.32587 2.7581 8.58771C2.01994 7.84955 1.6047 6.84875 1.60346 5.80484Z" fill="black"/>
</g>
<defs>
<clipPath id="clip0_1868_13766">
<rect width="14" height="14" fill="white" transform="translate(0 0.262695)"/>
</clipPath>
</defs>
</svg>
