<svg width="14" height="14" viewBox="0 0 14 14" fill="none" xmlns="http://www.w3.org/2000/svg">
<path d="M9.3335 2.91659L8.50516 3.74492L7.57766 2.81742V9.33325H6.42266V2.81742L5.49516 3.74492L4.66683 2.91659L7.00016 0.583252L9.3335 2.91659ZM11.6668 5.83325V12.2499C11.6668 12.8916 11.1418 13.4166 10.5002 13.4166H3.50016C3.19074 13.4166 2.894 13.2937 2.6752 13.0749C2.45641 12.8561 2.3335 12.5593 2.3335 12.2499V5.83325C2.3335 5.18575 2.85266 4.66659 3.50016 4.66659H5.25016V5.83325H3.50016V12.2499H10.5002V5.83325H8.75016V4.66659H10.5002C10.8096 4.66659 11.1063 4.7895 11.3251 5.00829C11.5439 5.22709 11.6668 5.52383 11.6668 5.83325Z" fill="white"/>
</svg>
