<svg width="20" height="20" viewBox="0 0 20 20" fill="none" xmlns="http://www.w3.org/2000/svg">
<path d="M5.55382 9.99995C5.55382 8.77772 4.55382 7.77772 3.3316 7.77772C2.10937 7.77772 1.10937 8.77772 1.10937 9.99995C1.10937 11.2222 2.10938 12.2222 3.3316 12.2222C4.55382 12.2222 5.55382 11.2222 5.55382 9.99995ZM7.77604 9.99995C7.77604 11.2222 8.77604 12.2222 9.99826 12.2222C11.2205 12.2222 12.2205 11.2222 12.2205 9.99995C12.2205 8.77772 11.2205 7.77772 9.99826 7.77772C8.77604 7.77772 7.77604 8.77772 7.77604 9.99995ZM14.4427 9.99995C14.4427 11.2222 15.4427 12.2222 16.6649 12.2222C17.8872 12.2222 18.8872 11.2222 18.8872 9.99994C18.8872 8.77772 17.8872 7.77772 16.6649 7.77772C15.4427 7.77772 14.4427 8.77772 14.4427 9.99995Z" fill="white"/>
</svg>
